<?xml version="1.0" encoding="utf-8"?>
<!-- Generator: Adobe Illustrator 23.0.3, SVG Export Plug-In . SVG Version: 6.00 Build 0)  -->
<svg version="1.1" id="Calque_1" xmlns="http://www.w3.org/2000/svg" xmlns:xlink="http://www.w3.org/1999/xlink" x="0px" y="0px"
	 viewBox="0 0 735 347" style="enable-background:new 0 0 735 347;" xml:space="preserve">
<style type="text/css">
	.st0{fill:#FFFFFF;}
</style>
<path class="st0" d="M730.3,176.9v0.2c0,0.6,0,1.3-0.1,1.9c-0.6,10.4-6,20.4-15.3,26.7l-2.5,1.7L508.8,342.8
	c-5.9,3.9-12.5,5.8-19.1,5.8c-11.2,0-22.1-5.4-28.8-15.4c-10.5-15.9-6.3-37.3,9.6-47.8L582.3,211H36c-19,0-34.5-15.5-34.5-34.5
	c0-9.5,3.9-18.2,10.1-24.4C17.8,145.9,26.5,142,36,142h544.8L470.6,68.6c-15.9-10.6-20.2-32-9.6-47.8c6.6-10,17.6-15.4,28.8-15.4
	c6.6,0,13.2,1.9,19.1,5.8l201.6,134.2h0l2,1.3l2.5,1.6c5.3,3.5,9.3,8.3,11.9,13.6c0.1,0.1,0.1,0.2,0.2,0.3c1.9,4,3,8.3,3.3,12.7
	C730.2,175.6,730.3,176.3,730.3,176.9z"/>
</svg>
