<?xml version="1.0" encoding="utf-8"?>
<!-- Generator: Adobe Illustrator 23.0.3, SVG Export Plug-In . SVG Version: 6.00 Build 0)  -->
<svg version="1.1" id="Calque_1" xmlns="http://www.w3.org/2000/svg" xmlns:xlink="http://www.w3.org/1999/xlink" x="0px" y="0px"
	 viewBox="0 0 693 260" style="enable-background:new 0 0 693 260;" xml:space="preserve">
<style type="text/css">
	.st0{fill:#FFFFFF;}
</style>
<g>
	<path class="st0" d="M690.3,124.6c0.1,0.1,0.1,0.3,0.2,0.5c0-0.1,0-0.1-0.1-0.2c-0.1-0.2-0.1-0.4-0.2-0.6c0,0,0,0.1,0.1,0.1
		C690.3,124.5,690.3,124.5,690.3,124.6z"/>
</g>
<g>
	<polygon class="st0" points="689.9,135.4 689.9,135.4 689.9,135.4 	"/>
</g>
<g>
	<path class="st0" d="M691.2,130.3c0,0.1,0,0.2,0,0.3c0,0.2,0,0.4-0.1,0.6c0,0.2-0.1,0.5-0.1,0.7c0,0.2-0.1,0.3-0.1,0.5
		c0,0.1,0,0.1,0,0.1c0,0.2-0.1,0.4-0.2,0.6c-0.1,0.4-0.2,0.7-0.4,1.1c-0.1,0.4-0.3,0.7-0.5,1.1c-0.1,0.3-0.3,0.5-0.4,0.7
		c-0.1,0.2-0.2,0.4-0.3,0.6c-0.1,0.1-0.1,0.2-0.2,0.3c-0.1,0.1-0.2,0.3-0.3,0.4c0,0.1-0.1,0.1-0.1,0.2c-1.2,1.6-2.8,3-4.8,4
		L454.5,254c-1.9,0.9-3.9,1.4-5.9,1.4c-5,0-9.8-2.8-12.1-7.6c-3.3-6.7-0.5-14.8,6.2-18.1l176.8-86.6c0,0,0-0.1,0-0.1H18.5
		c-3.7,0-7.1-1.5-9.5-4c-2.4-2.5-4-5.8-4-9.5C5,122,11.4,116,18.9,116h600.5c0,0,0,0,0-0.1L442.6,29.3c-6.7-3.3-9.5-11.4-6.2-18.1
		c2.3-4.8,7.1-7.6,12.1-7.6c2,0,4,0.4,5.9,1.4l229.2,112.3c1.7,0.8,3.1,2,4.2,3.3c0.2,0.3,0.5,0.5,0.7,0.8c0,0,0,0,0,0
		c0.2,0.2,0.3,0.4,0.4,0.6c0,0,0,0,0,0.1c0.1,0.2,0.3,0.4,0.4,0.6c0.1,0.3,0.3,0.5,0.4,0.8c0.1,0.2,0.2,0.5,0.3,0.7
		c0.1,0.2,0.2,0.4,0.2,0.6c0,0.1,0.1,0.1,0.1,0.2c0.1,0.2,0.2,0.5,0.2,0.7c0.1,0.2,0.1,0.4,0.2,0.6c0,0.1,0,0.1,0,0.1
		c0,0.2,0.1,0.3,0.1,0.5c0,0.1,0.1,0.3,0.1,0.4c0,0.1,0,0.2,0,0.3c0,0.2,0,0.4,0.1,0.6c0,0.1,0,0.2,0,0.4
		C691.3,129.2,691.3,129.8,691.2,130.3z"/>
</g>
<g>
	<path class="st0" d="M690.4,124.9c-0.1-0.2-0.1-0.4-0.2-0.6c0,0,0,0.1,0.1,0.1c0,0.1,0.1,0.1,0.1,0.2
		C690.4,124.7,690.4,124.8,690.4,124.9z"/>
</g>
</svg>
